<svg width="111" height="26" viewBox="0 0 111 26" fill="none" xmlns="http://www.w3.org/2000/svg">
<path d="M9.856 7.144C11.488 7.144 12.616 7.576 13.24 8.44C13.688 9.032 13.912 9.784 13.912 10.696C13.912 11.064 13.872 11.456 13.792 11.872L13.312 14.68C13.04 16.2 12.456 17.36 11.56 18.16C10.664 18.944 9.544 19.336 8.2 19.336C6.856 19.336 5.92 18.976 5.392 18.256L4.096 25.672H0.016L3.232 7.456H6.928L6.808 8.104C7.56 7.464 8.576 7.144 9.856 7.144ZM7.36 15.88C7.808 15.88 8.224 15.736 8.608 15.448C8.992 15.16 9.232 14.728 9.328 14.152L9.64 12.352C9.672 12.192 9.688 11.992 9.688 11.752C9.688 11.512 9.584 11.256 9.376 10.984C9.168 10.712 8.808 10.576 8.296 10.576C7.464 10.576 6.92 10.776 6.664 11.176L5.944 15.208C6.168 15.656 6.64 15.88 7.36 15.88ZM20.4201 15.928C20.7881 15.928 21.1161 15.848 21.4041 15.688L21.2841 18.4C20.5321 19.024 19.6761 19.336 18.7161 19.336C17.2601 19.336 16.3161 19 15.8841 18.328C15.5961 17.88 15.4521 17.408 15.4521 16.912C15.4521 16.4 15.4841 15.952 15.5481 15.568L16.9881 7.456H21.0681L19.7241 15.016C19.7081 15.112 19.7001 15.2 19.7001 15.28C19.7001 15.712 19.9401 15.928 20.4201 15.928ZM17.4681 3.544C17.4681 2.52 17.6921 1.776 18.1401 1.312C18.6041 0.831999 19.3161 0.592 20.2761 0.592C21.6201 0.592 22.2921 1.184 22.2921 2.368C22.2921 3.376 22.0601 4.112 21.5961 4.576C21.1481 5.04 20.4361 5.272 19.4601 5.272C18.1321 5.272 17.4681 4.696 17.4681 3.544ZM32.9836 19H22.2076L22.8076 15.64L29.5756 10.816H23.6476L24.2476 7.456H35.0236L34.4236 10.816L27.8716 15.64H33.5836L32.9836 19ZM45.9679 19H35.1919L35.7919 15.64L42.5599 10.816H36.6319L37.2319 7.456H48.0079L47.4079 10.816L40.8559 15.64H46.5679L45.9679 19ZM60.1043 15.304C60.1043 15.72 60.3123 15.928 60.7283 15.928C61.1603 15.928 61.5203 15.848 61.8083 15.688L61.6883 18.4C60.9203 19.024 60.0563 19.336 59.0963 19.336C57.3363 19.336 56.3603 18.696 56.1683 17.416C55.3683 18.696 54.1923 19.336 52.6403 19.336C50.0163 19.336 48.7043 18.208 48.7043 15.952C48.7043 15.568 48.7443 15.144 48.8243 14.68L49.3283 11.872C49.5843 10.432 50.1683 9.288 51.0803 8.44C52.0083 7.576 53.2083 7.144 54.6803 7.144C56.1683 7.144 57.1763 7.488 57.7043 8.176L57.8243 7.456H61.4723L60.1283 15.016C60.1123 15.112 60.1043 15.208 60.1043 15.304ZM53.0003 14.152C52.9683 14.296 52.9523 14.496 52.9523 14.752C52.9523 15.008 53.0723 15.264 53.3123 15.52C53.5523 15.76 53.9523 15.88 54.5123 15.88C55.0883 15.88 55.5843 15.656 56.0003 15.208L56.7203 11.176C56.5443 10.776 56.1283 10.576 55.4723 10.576C54.2403 10.576 53.5203 11.168 53.3123 12.352L53.0003 14.152ZM81.5074 15.928C81.8754 15.928 82.2034 15.848 82.4914 15.688L82.3714 18.4C81.6194 19.024 80.7634 19.336 79.8034 19.336C77.6274 19.336 76.5394 18.424 76.5394 16.6C76.5394 16.28 76.5714 15.936 76.6354 15.568L77.1634 12.616C77.2114 12.328 77.2354 12.04 77.2354 11.752C77.2354 10.984 76.8274 10.6 76.0114 10.6C75.2114 10.6 74.5874 10.872 74.1394 11.416L72.7954 19H68.7154L71.9314 0.783998H76.0114L74.6434 8.536C75.5234 7.592 76.6274 7.12 77.9554 7.12C79.5714 7.12 80.6194 7.48 81.0994 8.2C81.4354 8.68 81.6034 9.216 81.6034 9.808C81.6034 10.4 81.5554 10.944 81.4594 11.44L80.8114 15.016C80.7954 15.112 80.7874 15.2 80.7874 15.28C80.7874 15.712 81.0274 15.928 81.5074 15.928ZM95.4788 15.304C95.4788 15.72 95.6868 15.928 96.1028 15.928C96.5348 15.928 96.8948 15.848 97.1828 15.688L97.0628 18.4C96.2948 19.024 95.4308 19.336 94.4708 19.336C92.6628 19.336 91.6788 18.64 91.5188 17.248C90.5588 18.64 89.2628 19.336 87.6308 19.336C86.0148 19.336 84.9668 18.968 84.4868 18.232C84.1668 17.768 84.0068 17.24 84.0068 16.648C84.0068 16.056 84.0548 15.512 84.1508 15.016L85.4948 7.456H89.5748L88.4468 13.84C88.3988 14.128 88.3748 14.416 88.3748 14.704C88.3748 15.472 88.8068 15.856 89.6708 15.856C90.3908 15.856 90.9668 15.608 91.3988 15.112L92.7668 7.456H96.8468L95.5028 15.016C95.4868 15.112 95.4788 15.208 95.4788 15.304ZM103.812 19.336C101.956 19.336 100.62 18.92 99.8044 18.088C99.1964 17.48 98.8924 16.664 98.8924 15.64C98.8924 15.304 98.9244 14.944 98.9884 14.56L100.62 5.272L105.012 3.448L104.316 7.456H110.94L110.34 10.84H103.716L103.236 13.552C103.172 13.856 103.14 14.128 103.14 14.368C103.14 15.376 103.62 15.88 104.58 15.88C105.092 15.88 105.516 15.664 105.852 15.232C106.204 14.8 106.444 14.224 106.572 13.504H110.556C109.884 17.392 107.636 19.336 103.812 19.336Z" fill="#EE3A43"/>
</svg>
