<svg width="8" height="13" viewBox="0 0 8 13" fill="none" xmlns="http://www.w3.org/2000/svg">
<path d="M7.3834 6.87451L2.07871 12.1792C1.95111 12.3068 1.79616 12.3706 1.61387 12.3706C1.43158 12.3706 1.27663 12.3068 1.14902 12.1792L0.547461 11.5776C0.419857 11.45 0.34694 11.2951 0.328711 11.1128C0.328711 10.9305 0.392513 10.7756 0.520117 10.6479L4.7584 6.40967L0.520117 2.17139C0.392513 2.04378 0.328711 1.88883 0.328711 1.70654C0.34694 1.52425 0.419857 1.3693 0.547461 1.2417L1.14902 0.640137C1.27663 0.512533 1.43158 0.44873 1.61387 0.44873C1.79616 0.44873 1.95111 0.512533 2.07871 0.640137L7.3834 5.94482C7.52923 6.07243 7.60215 6.22738 7.60215 6.40967C7.60215 6.59196 7.52923 6.74691 7.3834 6.87451Z" fill="#616161"/>
<a href="https://www.figma.com/design/Zo6jkxWkt6KhJdxu9rbYBl?node-id=43-671">
<rect fill="black" fill-opacity="0" x="0.210547" width="8.72266" height="14"/>
</a>
</svg>
